{"accessors" : [{"bufferView" : 0, "byteOffset" : 0, "componentType" : 5123, "count" : 31038, "type" : "SCALAR", "max" : [31037], "min" : [0]}, {"bufferView" : 1, "byteOffset" : 0, "componentType" : 5126, "count" : 31038, "type" : "VEC3", "max" : [0.8148456811904907, 0.18153510987758636, 1.8046410083770752], "min" : [-0.8148456811904907, -0.11522381752729416, 1.0600587074804935E-08], "name" : "POSITION"}, {"bufferView" : 1, "byteOffset" : 12, "componentType" : 5126, "count" : 31038, "type" : "VEC3", "max" : [1.0000044107437134, 1.0000044107437134, 1.0000044107437134], "min" : [-1.0000044107437134, -1.0000044107437134, -1.0000044107437134], "name" : "NORMAL"}, {"bufferView" : 1, "byteOffset" : 24, "componentType" : 5126, "count" : 31038, "type" : "VEC2", "max" : [0.99951171875, -0.00048828125], "min" : [0.00048828125, -0.942349910736084], "name" : "TEXCOORD_0"}], "asset" : {"generator" : "Aspose.3D 23.1", "version" : "2.0"}, "buffers" : [{"uri" : "data:application/octet-stream;base64,", "byteLength" : 1055300}], "bufferViews" : [{"buffer" : 0, "byteOffset" : 0, "byteLength" : 62076, "target" : 34963}, {"buffer" : 0, "byteOffset" : 62080, "byteLength" : 993216, "byteStride" : 32, "target" : 34962}], "meshes" : [{"primitives" : [{"attributes" : {"POSITION" : 1, "NORMAL" : 2, "TEXCOORD_0" : 3}, "indices" : 0, "mode" : 4}], "name" : "BaseMesh_Female"}], "nodes" : [{"matrix" : [100, 0, 0, 0, 0, -1.6292067955264296E-05, -99.99999999999866, 0, 0, 99.99999999999866, -1.6292067955264296E-05, 0, 0, 0, 0, 1], "mesh" : 0, "name" : "BaseMesh_Female"}], "scene" : 0, "scenes" : [{"nodes" : [0]}]}