{"accessors" : [{"bufferView" : 0, "byteOffset" : 0, "componentType" : 5123, "count" : 31038, "type" : "SCALAR", "max" : [25077], "min" : [0]}, {"bufferView" : 1, "byteOffset" : 0, "componentType" : 5126, "count" : 25078, "type" : "VEC3", "max" : [0.8148459792137146, 1.8046410083770752, 0.11522399634122849], "min" : [-0.8148459792137146, 0, -0.181535005569458], "name" : "POSITION"}, {"bufferView" : 1, "byteOffset" : 12, "componentType" : 5126, "count" : 25078, "type" : "VEC3", "max" : [1.0000044107437134, 1.0000044107437134, 1.0000044107437134], "min" : [-1.0000044107437134, -1.0000044107437134, -1.0000044107437134], "name" : "NORMAL"}, {"bufferView" : 1, "byteOffset" : 24, "componentType" : 5126, "count" : 25078, "type" : "VEC2", "max" : [0.9995120167732239, -0.0004879999905824661], "min" : [0.0004879999905824661, -0.9423499703407288], "name" : "TEXCOORD_0"}], "asset" : {"generator" : "Aspose.3D 23.1", "version" : "2.0"}, "buffers" : [{"uri" : "data:application/octet-stream;base64,", "byteLength" : 1055300}], "bufferViews" : [{"buffer" : 0, "byteOffset" : 0, "byteLength" : 62076, "target" : 34963}, {"buffer" : 0, "byteOffset" : 62080, "byteLength" : 993216, "byteStride" : 32, "target" : 34962}], "meshes" : [{"primitives" : [{"attributes" : {"POSITION" : 1, "NORMAL" : 2, "TEXCOORD_0" : 3}, "indices" : 0, "mode" : 4}], "name" : "BaseMesh_Femalemesh"}], "nodes" : [{"mesh" : 0, "name" : "BaseMesh_Female"}], "scene" : 0, "scenes" : [{"nodes" : [0]}]}